HIERARCHY
ROOT Hips
{
	OFFSET -249.055206 84.790703 395.617310
	CHANNELS 6 Xposition Yposition Zposition Zrotation Yrotation Xrotation 
	JOINT LeftUpLeg
	{
		OFFSET 0.103457 1.857812 10.548510
		CHANNELS 3 Zrotation Yrotation Xrotation
		JOINT LeftLeg
		{
			OFFSET 43.499996 -0.000034 -0.000002
			CHANNELS 3 Zrotation Yrotation Xrotation
			JOINT LeftFoot
			{
				OFFSET 42.372200 0.000019 0.000006
				CHANNELS 3 Zrotation Yrotation Xrotation
				JOINT LeftToe
				{
					OFFSET 17.300014 0.000005 0.000004
					CHANNELS 3 Zrotation Yrotation Xrotation
					End Site
					{
						OFFSET 0.000000 0.000000 0.000000
					}
				}
			}
		}
	}
	JOINT RightUpLeg
	{
		OFFSET 0.103454 1.857821 -10.548510
		CHANNELS 3 Zrotation Yrotation Xrotation
		JOINT RightLeg
		{
			OFFSET 43.500038 -0.000023 -0.000002
			CHANNELS 3 Zrotation Yrotation Xrotation
			JOINT RightFoot
			{
				OFFSET 42.372269 -0.000015 0.000018
				CHANNELS 3 Zrotation Yrotation Xrotation
				JOINT RightToe
				{
					OFFSET 17.299999 -0.000003 0.000017
					CHANNELS 3 Zrotation Yrotation Xrotation
					End Site
					{
						OFFSET 0.000000 0.000000 0.000000
					}
				}
			}
		}
	}
	JOINT Spine
	{
		OFFSET 6.901964 -2.603738 -0.000002
		CHANNELS 3 Zrotation Yrotation Xrotation
		JOINT Spine1
		{
			OFFSET 12.588104 0.000003 0.000002
			CHANNELS 3 Zrotation Yrotation Xrotation
			JOINT Spine2
			{
				OFFSET 12.343203 0.000018 0.000001
				CHANNELS 3 Zrotation Yrotation Xrotation
				JOINT Neck
				{
					OFFSET 25.832893 -0.000031 0.000001
					CHANNELS 3 Zrotation Yrotation Xrotation
					JOINT Head
					{
						OFFSET 11.766602 0.000015 -0.000007
						CHANNELS 3 Zrotation Yrotation Xrotation
						End Site
						{
							OFFSET 0.000000 0.000000 0.000000
						}
					}
				}
				JOINT LeftShoulder
				{
					OFFSET 19.745899 -1.480385 6.000105
					CHANNELS 3 Zrotation Yrotation Xrotation
					JOINT LeftArm
					{
						OFFSET 11.284128 -0.000013 -0.000015
						CHANNELS 3 Zrotation Yrotation Xrotation
						JOINT LeftForeArm
						{
							OFFSET 33.000034 -0.000011 0.000028
							CHANNELS 3 Zrotation Yrotation Xrotation
							JOINT LeftHand
							{
								OFFSET 25.200010 0.000029 -0.000001
								CHANNELS 3 Zrotation Yrotation Xrotation
								End Site
								{
									OFFSET 0.000000 0.000000 0.000000
								}
							}
						}
					}
				}
				JOINT RightShoulder
				{
					OFFSET 19.746101 -1.480389 -6.000086
					CHANNELS 3 Zrotation Yrotation Xrotation
					JOINT RightArm
					{
						OFFSET 11.284134 -0.000024 0.000000
						CHANNELS 3 Zrotation Yrotation Xrotation
						JOINT RightForeArm
						{
							OFFSET 33.000103 0.000024 0.000001
							CHANNELS 3 Zrotation Yrotation Xrotation
							JOINT RightHand
							{
								OFFSET 25.199764 0.000116 0.000427
								CHANNELS 3 Zrotation Yrotation Xrotation
								End Site
								{
									OFFSET 0.000000 0.000000 0.000000
								}
							}
						}
					}
				}
			}
		}
	}
}
MOTION
Frames: 5
Frame Time: 0.033333
-249.055206 84.790703 395.617310 91.118890 -4.324550 105.087296 134.500959 -4.791896 172.810725 -68.616244 2.143777 2.573018 85.793870 -3.284324 -7.407054 21.454550 0.003087 -0.000004 156.896617 1.053698 -169.252511 -53.351772 -8.458581 6.287429 101.303385 -3.437669 9.209671 21.454562 -0.003105 -0.000017 10.803170 1.004147 0.020300 11.596477 2.001106 0.141248 11.278184 2.002048 0.129167 -3.554757 0.654284 14.194561 -8.256523 -19.601941 20.171690 174.883920 -72.040143 3.931821 -46.969083 44.031279 -10.801813 -45.589880 -16.820995 1.734041 8.463065 -9.636985 31.385638 165.077681 76.709445 -13.804077 -27.852133 -47.911916 -15.778473 -38.778601 15.080414 -1.459201 8.929541 7.776010 -8.943237 
-248.790695 83.049156 396.420288 91.592325 -4.926820 105.526703 130.753781 -5.084310 172.144031 -67.655039 1.715480 0.605940 87.178445 -1.852261 -7.573363 21.454551 0.003085 0.000000 154.391017 2.310898 -168.812661 -59.223109 -8.586087 6.456515 103.763810 -3.686054 9.816373 21.454558 -0.003110 -0.000019 11.035511 0.850854 -0.046436 12.059457 1.701809 -0.003858 11.741216 1.701881 -0.014122 -4.290183 0.235687 13.984913 -9.318065 -19.020398 19.807948 175.082692 -72.200687 3.722708 -44.425961 42.328243 -13.166223 -45.002764 -17.029250 1.730322 10.446465 -8.896161 27.073666 162.905011 76.598529 -16.023626 -28.200094 -46.633205 -14.660666 -38.293162 15.172242 -1.452836 8.977088 8.224475 -7.649849 
-248.438202 81.001907 397.372894 91.486764 -4.806430 106.029903 127.361062 -6.073698 172.360438 -65.602895 1.582238 -0.481864 88.458422 -1.060604 -7.822229 21.454553 0.003088 -0.000001 152.844949 2.704699 -168.812456 -64.723972 -8.321622 7.020146 106.419197 -4.235033 10.555323 21.454560 -0.003109 -0.000017 11.465166 0.835143 -0.028707 12.919129 1.668169 0.036122 12.600884 1.668487 0.026065 -5.886951 -0.482021 13.778883 -9.725616 -18.303575 19.059793 175.797198 -72.676846 2.974648 -43.646312 40.390891 -15.399134 -43.826551 -17.409585 1.720967 11.910912 -9.241930 23.627356 161.687803 77.045381 -17.242621 -29.629118 -45.596796 -12.508291 -37.994915 15.386555 -1.459255 9.405586 8.250774 -6.685735 
-247.944107 78.765953 398.367188 91.524726 -4.872823 106.595593 123.714902 -6.680898 172.924298 -62.882984 1.707336 -1.356831 88.656231 -0.351174 -7.224257 21.454553 0.003095 0.000001 151.561706 3.015504 -169.360510 -69.781973 -7.957581 7.972526 109.702592 -5.126998 11.535307 21.454557 -0.003098 -0.000017 11.884235 0.768786 -0.041267 13.756935 1.536914 0.009296 13.438711 1.537080 0.000023 -6.999380 -1.145619 13.596679 -11.078347 -17.726306 18.609986 175.554494 -72.580172 3.226861 -42.787720 37.868075 -16.914154 -42.637070 -17.568401 1.697424 12.230379 -10.438162 21.845470 158.530098 76.599383 -20.480630 -30.098287 -43.653170 -10.713422 -37.811596 15.329747 -1.450978 9.556627 8.034179 -6.434563 
-247.288696 76.502640 399.447113 91.682278 -5.057984 107.129304 120.270752 -6.894101 173.576280 -59.783696 1.981139 -2.944341 87.718275 1.011486 -5.305727 21.454551 0.003102 0.000003 150.432212 3.137212 -170.712901 -74.698439 -7.416778 9.170235 112.738898 -6.214980 12.736545 21.454560 -0.003093 -0.000016 12.312580 0.653563 -0.040920 14.613263 1.306969 0.001133 14.295086 1.307084 -0.006745 -8.173063 -1.633047 13.439030 -12.639304 -17.033247 18.240538 173.880101 -72.354543 4.954575 -41.966253 35.173948 -18.035806 -41.404969 -17.406131 1.652543 11.901617 -10.277043 21.011622 155.678111 76.221701 -23.405310 -31.006081 -41.795314 -8.971939 -37.428668 15.321100 -1.440913 9.334178 8.106245 -5.682320 
